HIERARCHY
ROOT root
{
	OFFSET	0	13.1	24.9
	CHANNELS 6  Xposition Yposition Zposition Xrotation Yrotation Zrotation
	JOINT spine_1
	{
		OFFSET	0	9.99999	0
		CHANNELS 3  Xrotation Yrotation Zrotation
		JOINT spine_2
		{
			OFFSET	0	112	-10
			CHANNELS 3  Xrotation Yrotation Zrotation
			JOINT spine_3
			{
				OFFSET	0	206.5	19.3
				CHANNELS 3  Xrotation Yrotation Zrotation
				JOINT spine_4
				{
					OFFSET	0	110.4	14.6
					CHANNELS 3  Xrotation Yrotation Zrotation
					JOINT neck_1
					{
						OFFSET	0	71.8	-50.3
						CHANNELS 3  Xrotation Yrotation Zrotation
						JOINT neck_2
						{
							OFFSET	0	86.2	-25.8
							CHANNELS 3  Xrotation Yrotation Zrotation
							JOINT head_ee
							{
								OFFSET	0	179.8	-8.7
								CHANNELS 3  Xrotation Yrotation Zrotation
								End Site
								{
									OFFSET	1	0	0
								}
							}
						}
					}
					JOINT left_clavicle
					{
						OFFSET	-43.2	22.4	-70.8
						CHANNELS 3  Xrotation Yrotation Zrotation
						JOINT left_shoulder
						{
							OFFSET	-93.9	-5.79999	48.7
							CHANNELS 3  Xrotation Yrotation Zrotation
							JOINT left_elbow
							{
								OFFSET	-291.4	-30.8	15.2
								CHANNELS 3  Xrotation Yrotation Zrotation
								JOINT left_lowarm_twist
								{
									OFFSET	-110.7	-3.89999	13.6
									CHANNELS 3  Xrotation Yrotation Zrotation
									JOINT left_hand
									{
										OFFSET	-110.7	-3.89999	13.6
										CHANNELS 3  Xrotation Yrotation Zrotation
										JOINT left_ee
										{
											OFFSET	-80.8	-5.10001	12.1
											CHANNELS 3  Xrotation Yrotation Zrotation
											End Site
											{
												OFFSET	1	0	0
											}
										}
									}
								}
							}
						}
					}
					JOINT right_clavicle
					{
						OFFSET	43.2	22.4	-70.8
						CHANNELS 3  Xrotation Yrotation Zrotation
						JOINT right_shoulder
						{
							OFFSET	93.9	-5.79999	48.7
							CHANNELS 3  Xrotation Yrotation Zrotation
							JOINT right_elbow
							{
								OFFSET	291.4	-30.8	15.2
								CHANNELS 3  Xrotation Yrotation Zrotation
								JOINT right_lowarm_twist
								{
									OFFSET	110.7	-3.89999	13.6
									CHANNELS 3  Xrotation Yrotation Zrotation
									JOINT right_hand
									{
										OFFSET	110.7	-3.89999	13.6
										CHANNELS 3  Xrotation Yrotation Zrotation
										JOINT right_ee
										{
											OFFSET	80.8	-5.10001	12.1
											CHANNELS 3  Xrotation Yrotation Zrotation
											End Site
											{
												OFFSET	1	0	0
											}
										}
									}
								}
							}
						}
					}
				}
			}
		}
	}
	JOINT left_hip
	{
		OFFSET	-82.8	-127.5	0.300001
		CHANNELS 3  Xrotation Yrotation Zrotation
		JOINT left_knee
		{
			OFFSET	-28.2	-396.7	2.2
			CHANNELS 3  Xrotation Yrotation Zrotation
			JOINT left_ankle
			{
				OFFSET	-11.7	-411.3	35.4
				CHANNELS 3  Xrotation Yrotation Zrotation
				JOINT left_toes
				{
					OFFSET	0	-60	-88.6
					CHANNELS 3  Xrotation Yrotation Zrotation
					JOINT left_foot_ee
					{
						OFFSET	-22.5	-16.5	-42.2
						CHANNELS 3  Xrotation Yrotation Zrotation
						End Site
						{
							OFFSET	1	0	0
						}
					}
				}
			}
		}
	}
	JOINT right_hip
	{
		OFFSET	82.8	-127.5	0.300001
		CHANNELS 3  Xrotation Yrotation Zrotation
		JOINT right_knee
		{
			OFFSET	28.2	-396.7	2.2
			CHANNELS 3  Xrotation Yrotation Zrotation
			JOINT right_ankle
			{
				OFFSET	11.7	-411.3	35.4
				CHANNELS 3  Xrotation Yrotation Zrotation
				JOINT right_toes
				{
					OFFSET	0	-60	-88.6
					CHANNELS 3  Xrotation Yrotation Zrotation
					JOINT right_foot_ee
					{
						OFFSET	22.5	-16.5	-42.2
						CHANNELS 3  Xrotation Yrotation Zrotation
						End Site
						{
							OFFSET	1	0	0
						}
					}
				}
			}
		}
	}
}
MOTION
Frames: 9
Frame Time: 0.02
1041.4 574.639 -1682.42 63.2081944218 86.9302823304 -57.343111986 -1.57282 -0.192132 -0.883303 -1.57239 -0.135538 -0.893737 -1.56983 0.0800293 -0.900407 -1.57096 -0.0631715 -0.901746 -1.21703 2.48256 -5.99804 -1.03187 9.27397 -6.08217 -0.0 0.0 -0.0 8.04799 17.1171 14.679 -5.97358 -5.48063 66.5697 0.457424 -12.7675 0.0511773 67.1358 -2.44871 -7.72526 -9.20461 30.5583 -40.9785 -0.0 0.0 -0.0 8.46304 7.03254 -16.5617 7.21866 1.17551 -68.763 1.37423 34.2434 -0.423357 52.9188 1.1856 6.41781 7.59178 13.0098 -51.977 0.0 0.0 0.0 28.5657 4.23095 -8.96569 -8.0446 0.246678 1.20895 -11.0359 -0.324223 1.66814 19.3435 -0.0 -0.0 -0.0 0.0 -0.0 -19.2139 9.73625 -8.58909 -12.8504 -0.3123 -1.94323 31.1562 -3.56622 4.01404 0.499815 -0.0 -0.0 0.0 0.0 0.0 
1041.4 574.639 -1682.42 69.4065545927 87.0728917533 -63.5499480481 -1.57282 -0.192132 -0.883303 -1.57239 -0.135538 -0.893737 -1.56983 0.0800293 -0.900407 -1.57096 -0.0631715 -0.901746 -1.21703 2.48256 -5.99804 -1.03187 9.27397 -6.08217 -0.0 0.0 -0.0 8.04799 17.1171 14.679 -5.97358 -5.48063 66.5697 0.457424 -12.7675 0.0511773 67.1358 -2.44871 -7.72526 -9.20461 30.5583 -40.9785 -0.0 0.0 -0.0 8.46304 7.03254 -16.5617 7.21866 1.17551 -68.763 1.37423 34.2434 -0.423357 52.9188 1.1856 6.41781 7.59178 13.0098 -51.977 0.0 0.0 0.0 28.5657 4.23095 -8.96569 -8.0446 0.246678 1.20895 -11.0359 -0.324223 1.66814 19.3435 -0.0 -0.0 -0.0 0.0 -0.0 -19.2139 9.73625 -8.58909 -12.8504 -0.3123 -1.94323 31.1562 -3.56622 4.01404 0.499815 -0.0 -0.0 0.0 0.0 0.0 
1041.4 574.639 -1682.42 79.9942994596 87.2177326953 -74.1507647365 -1.57282 -0.192132 -0.883303 -1.57239 -0.135538 -0.893737 -1.56983 0.0800293 -0.900407 -1.57096 -0.0631715 -0.901746 -1.21703 2.48256 -5.99804 -1.03187 9.27397 -6.08217 -0.0 0.0 -0.0 8.04799 17.1171 14.679 -5.97358 -5.48063 66.5697 0.457424 -12.7675 0.0511773 67.1358 -2.44871 -7.72526 -9.20461 30.5583 -40.9785 -0.0 0.0 -0.0 8.46304 7.03254 -16.5617 7.21866 1.17551 -68.763 1.37423 34.2434 -0.423357 52.9188 1.1856 6.41781 7.59178 13.0098 -51.977 0.0 0.0 0.0 28.5657 4.23095 -8.96569 -8.0446 0.246678 1.20895 -11.0359 -0.324223 1.66814 19.3435 -0.0 -0.0 -0.0 0.0 -0.0 -19.2139 9.73625 -8.58909 -12.8504 -0.3123 -1.94323 31.1562 -3.56622 4.01404 0.499815 -0.0 -0.0 0.0 0.0 0.0 
1041.4 574.639 -1682.42 79.2029680094 87.2106644609 -73.3584970252 -1.57282 -0.192132 -0.883303 -1.57239 -0.135538 -0.893737 -1.56983 0.0800293 -0.900407 -1.57096 -0.0631715 -0.901746 -1.21703 2.48256 -5.99804 -1.03187 9.27397 -6.08217 -0.0 0.0 -0.0 8.04799 17.1171 14.679 -5.97358 -5.48063 66.5697 0.457424 -12.7675 0.0511773 67.1358 -2.44871 -7.72526 -9.20461 30.5583 -40.9785 -0.0 0.0 -0.0 8.46304 7.03254 -16.5617 7.21866 1.17551 -68.763 1.37423 34.2434 -0.423357 52.9188 1.1856 6.41781 7.59178 13.0098 -51.977 0.0 0.0 0.0 28.5657 4.23095 -8.96569 -8.0446 0.246678 1.20895 -11.0359 -0.324223 1.66814 19.3435 -0.0 -0.0 -0.0 0.0 -0.0 -19.2139 9.73625 -8.58909 -12.8504 -0.3123 -1.94323 31.1562 -3.56622 4.01404 0.499815 -0.0 -0.0 0.0 0.0 0.0 
1041.4 574.639 -1682.42 85.6110007867 87.2520174907 -79.7740025372 -1.57282 -0.192132 -0.883303 -1.57239 -0.135538 -0.893737 -1.56983 0.0800293 -0.900407 -1.57096 -0.0631715 -0.901746 -1.21703 2.48256 -5.99804 -1.03187 9.27397 -6.08217 -0.0 0.0 -0.0 8.04799 17.1171 14.679 -5.97358 -5.48063 66.5697 0.457424 -12.7675 0.0511773 67.1358 -2.44871 -7.72526 -9.20461 30.5583 -40.9785 -0.0 0.0 -0.0 8.46304 7.03254 -16.5617 7.21866 1.17551 -68.763 1.37423 34.2434 -0.423357 52.9188 1.1856 6.41781 7.59178 13.0098 -51.977 0.0 0.0 0.0 28.5657 4.23095 -8.96569 -8.0446 0.246678 1.20895 -11.0359 -0.324223 1.66814 19.3435 -0.0 -0.0 -0.0 0.0 -0.0 -19.2139 9.73625 -8.58909 -12.8504 -0.3123 -1.94323 31.1562 -3.56622 4.01404 0.499815 -0.0 -0.0 0.0 0.0 0.0 
1041.4 574.639 -1682.42 87.9850566051 87.2583857471 -82.1507843626 -1.57282 -0.192132 -0.883303 -1.57239 -0.135538 -0.893737 -1.56983 0.0800293 -0.900407 -1.57096 -0.0631715 -0.901746 -1.21703 2.48256 -5.99804 -1.03187 9.27397 -6.08217 -0.0 0.0 -0.0 8.04799 17.1171 14.679 -5.97358 -5.48063 66.5697 0.457424 -12.7675 0.0511773 67.1358 -2.44871 -7.72526 -9.20461 30.5583 -40.9785 -0.0 0.0 -0.0 8.46304 7.03254 -16.5617 7.21866 1.17551 -68.763 1.37423 34.2434 -0.423357 52.9188 1.1856 6.41781 7.59178 13.0098 -51.977 0.0 0.0 0.0 28.5657 4.23095 -8.96569 -8.0446 0.246678 1.20895 -11.0359 -0.324223 1.66814 19.3435 -0.0 -0.0 -0.0 0.0 -0.0 -19.2139 9.73625 -8.58909 -12.8504 -0.3123 -1.94323 31.1562 -3.56622 4.01404 0.499815 -0.0 -0.0 0.0 0.0 0.0 
1041.4 574.639 -1682.42 98.4462611111 87.2300160839 -92.624033375 -1.57282 -0.192132 -0.883303 -1.57239 -0.135538 -0.893737 -1.56983 0.0800293 -0.900407 -1.57096 -0.0631715 -0.901746 -1.21703 2.48256 -5.99804 -1.03187 9.27397 -6.08217 -0.0 0.0 -0.0 8.04799 17.1171 14.679 -5.97358 -5.48063 66.5697 0.457424 -12.7675 0.0511773 67.1358 -2.44871 -7.72526 -9.20461 30.5583 -40.9785 -0.0 0.0 -0.0 8.46304 7.03254 -16.5617 7.21866 1.17551 -68.763 1.37423 34.2434 -0.423357 52.9188 1.1856 6.41781 7.59178 13.0098 -51.977 0.0 0.0 0.0 28.5657 4.23095 -8.96569 -8.0446 0.246678 1.20895 -11.0359 -0.324223 1.66814 19.3435 -0.0 -0.0 -0.0 0.0 -0.0 -19.2139 9.73625 -8.58909 -12.8504 -0.3123 -1.94323 31.1562 -3.56622 4.01404 0.499815 -0.0 -0.0 0.0 0.0 0.0 
1014.27240577 579.855 -1676.03861927 114.270533674 86.9267980987 -107.786439476 -1.4058 -0.309053 -1.06424 -1.40521 -0.24071 -1.08174 -1.4 0.0190876 -1.10803 -1.40167 -0.156135 -1.09715 0.438485 2.65215 -6.52894 0.681939 10.0845 -6.82109 -0.0 0.0 -0.0 8.17097 17.6979 14.82 -5.12931 -4.21514 66.9528 0.533293 -14.7984 0.0692553 69.1296 -2.65056 -7.88238 -9.40592 30.6519 -42.4096 -0.0 0.0 -0.0 8.04937 6.06884 -15.7024 4.56266 0.98767 -68.9923 1.14047 29.4636 -0.299884 48.2099 0.843657 5.92134 7.44487 12.5113 -50.8633 0.0 0.0 0.0 26.469 4.34223 -9.31276 -7.00067 0.224294 1.05032 -10.0925 -3.32621 1.53855 17.1192 -0.0 -0.0 -0.0 0.0 -0.0 -19.1192 10.6489 -8.93348 -14.1622 -0.319493 -2.14436 25.8953 -8.75703 3.43627 3.22833 -0.0 -0.0 0.0 0.0 0.0 
1014.33569622 579.855 -1675.77531418 123.000381103 86.6591976486 -116.529903069 -1.4058 -0.309053 -1.06424 -1.40521 -0.24071 -1.08174 -1.4 0.0190876 -1.10803 -1.40167 -0.156135 -1.09715 0.438485 2.65215 -6.52894 0.681939 10.0845 -6.82109 -0.0 0.0 -0.0 8.17097 17.6979 14.82 -5.12931 -4.21514 66.9528 0.533293 -14.7984 0.0692553 69.1296 -2.65056 -7.88238 -9.40592 30.6519 -42.4096 -0.0 0.0 -0.0 8.04937 6.06884 -15.7024 4.56266 0.98767 -68.9923 1.14047 29.4636 -0.299884 48.2099 0.843657 5.92134 7.44487 12.5113 -50.8633 0.0 0.0 0.0 26.469 4.34223 -9.31276 -7.00067 0.224294 1.05032 -10.0925 -3.32621 1.53855 17.1192 -0.0 -0.0 -0.0 0.0 -0.0 -19.1192 10.6489 -8.93348 -14.1622 -0.319493 -2.14436 25.8953 -8.75703 3.43627 3.22833 -0.0 -0.0 0.0 0.0 0.0 
